                            <!-- Generator: Adobe Illustrator 21.1.0, SVG Export Plug-In  -->
<svg version="1.1" xmlns="http://www.w3.org/2000/svg" xmlns:xlink="http://www.w3.org/1999/xlink" xmlns:a="http://ns.adobe.com/AdobeSVGViewerExtensions/3.0/" x="0px" y="0px" width="288px" viewBox="0 0 288 144" style="enable-background:new 0 0 288 144;" xml:space="preserve">
<style type="text/css">
	.st0{fill:#FFFFFF;}
	.st1{fill:#EF373E;}
	.st2{fill:#00AAE7;}
	.st3{fill:#62BB46;}
	.st4{fill:#FAA41A;}
</style>
<defs>
</defs>
<g>
	<g>
		<path class="st0" d="M142,70H74V2c0-1.1-0.9-2-2-2s-2,0.9-2,2v68H2c-1.1,0-2,0.9-2,2s0.9,2,2,2h68v68c0,1.1,0.9,2,2,2s2-0.9,2-2
			V74h68c1.1,0,2-0.9,2-2S143.1,70,142,70z"></path>
		<path class="st1" d="M62,35L42,15l-7,7l-7-7L8,35l20,20l7-7l7,7L62,35z M28,48.4L14.6,35L28,21.6l3.7,3.7L22,35l9.7,9.7L28,48.4z
			 M35,28.6l6.4,6.4L35,41.4L28.6,35L35,28.6z M48,35l-9.7-9.7l3.7-3.7L55.4,35L42,48.4l-3.7-3.7L48,35z"></path>
		<path class="st2" d="M121,125c-3.6,0-7.1-2.7-10.5-7.9c-0.6-0.9-1.1-1.8-1.6-2.7c-0.5,0.8-1,1.8-1.6,2.7
			c-3.3,5.3-6.9,7.9-10.5,7.9c-3.4,0-6.4-1.8-8.7-5c-2.1-3-3.2-6.9-3.2-11s1.2-8,3.2-11c2.3-3.2,5.4-5,8.7-5c3.6,0,7.1,2.7,10.5,7.9
			c0.6,0.9,1.1,1.8,1.6,2.7c0.5-0.8,1-1.8,1.6-2.7c3.3-5.3,6.9-7.9,10.5-7.9c3.4,0,6.4,1.8,8.7,5c2.1,3,3.2,6.9,3.2,11
			s-1.2,8-3.2,11C127.5,123.2,124.4,125,121,125z M111.5,109c0.5,1.2,1.6,3.4,3,5.6c2.3,3.6,4.7,5.7,6.5,5.7c4,0,7.3-5.2,7.3-11.3
			S125,97.7,121,97.7c-1.8,0-4.2,2.1-6.5,5.8C113.1,105.6,112.1,107.8,111.5,109z M97,97.7c-4,0-7.3,5.2-7.3,11.3s3.3,11.3,7.3,11.3
			c1.8,0,4.2-2.1,6.5-5.7c1.4-2.2,2.5-4.4,3-5.6c-0.5-1.2-1.6-3.4-3-5.6C101.2,99.7,98.8,97.7,97,97.7z"></path>
		<path class="st3" d="M121.1,27l-3,3.6l4.8,4H121c-3.7,0-7.1,1.4-9.7,3.8V21.1l4,4.8l3.6-3L109,11L99,22.9l3.6,3l4-4.8v17.3
			c-2.6-2.3-5.9-3.8-9.7-3.8h-1.9l4.8-4l-3-3.6L85,37l11.9,10l3-3.6l-4.8-4H97c5.3,0,9.7,4.3,9.7,9.7v7.7c0,1.3,1,2.3,2.3,2.3
			c1.3,0,2.3-1,2.3-2.3V49c0-5.3,4.3-9.7,9.7-9.7h1.9l-4.8,4l3,3.6L133,37L121.1,27z"></path>
		<g>
			<path class="st4" d="M35,84.7c-7.9,0-14.3,6.4-14.3,14.3c0,3.8,1.5,7.4,4.2,10.1c1.8,1.8,2.8,4.3,2.8,6.8l0,7
				c0,0.7,0.3,1.4,0.9,1.9c0.4,0.3,0.9,0.5,1.4,0.5c0.2,0,0.5,0,0.7-0.1l9.9-3c1-0.3,1.7-1.2,1.7-2.2l0-4c0,0,0,0,0,0
				c0-2.6,1-5,2.8-6.8c2.7-2.7,4.2-6.3,4.2-10.1C49.3,91.1,42.9,84.7,35,84.7z M41.8,105.8c-2.7,2.7-4.2,6.3-4.2,10.1l0,2.3
				l-5.3,1.6l0-3.9c0-3.8-1.5-7.4-4.2-10.1c-1.8-1.8-2.8-4.3-2.8-6.8c0-5.3,4.3-9.7,9.7-9.7c5.3,0,9.7,4.3,9.7,9.7
				C44.7,101.6,43.7,104,41.8,105.8z"></path>
			<path class="st4" d="M39.3,125.1l-9.9,3c-1.2,0.4-1.9,1.7-1.6,2.9c0.3,1,1.2,1.7,2.2,1.7c0.2,0,0.5,0,0.7-0.1l2.2-0.7
				c0.4,0.8,1.2,1.4,2.1,1.4h0c1.3,0,2.3-1.1,2.3-2.3v-0.4l3.3-1c1.2-0.4,1.9-1.7,1.6-2.9C41.8,125.4,40.5,124.7,39.3,125.1z"></path>
		</g>
	</g>
	<g>
		<path class="st0" d="M230,48.9h-10.2l-17.7,45.9h6.6l5.1-13.3H236l5.1,13.3h6.6L230,48.9z M215.7,76l5.6-14.4l3-8.1h1.1l3.1,8.1
			l5.6,14.4H215.7z"></path>
		<path class="st0" d="M272.8,95.4c-7.1,0-12.5-2-16.1-5.9c-3.6-3.9-5.4-9.8-5.4-17.5c0-7.8,1.8-13.7,5.4-17.7c3.6-4,9-6,16-6
			c1.5,0,3.5,0.2,5.3,0.3c4.9,0.5,8.5,1.4,10,1.9c0,0.6,0,4.7,0,5.5c-1.1-0.6-7.6-1.7-10.3-1.9c-1.7-0.2-3.2-0.3-4.5-0.3
			c-5.2,0-9.2,1.5-11.7,4.4c-2.5,3-3.8,7.6-3.8,13.7c0,6.1,1.2,10.6,3.7,13.6c2.4,2.9,6.2,4.4,11.3,4.4c0.7,0,1.6,0,2.6-0.1
			c1-0.1,2-0.2,3-0.3c1-0.1,2-0.3,3-0.4c0.9-0.2,1.7-0.3,2.4-0.5c0,0,2.9-0.7,4.3-1.2c0,0.9,0,4.5,0,5.5c-0.9,0.3-4.1,1.2-4.1,1.2
			c-0.8,0.2-1.7,0.4-2.6,0.6c-1,0.2-1.9,0.3-2.9,0.4c-1,0.1-2,0.2-2.9,0.3C274.4,95.3,273.5,95.4,272.8,95.4z"></path>
		<path class="st0" d="M192.4,54.1c-4-3.8-10.4-5.7-18.9-5.7c-3.6,0-13.4,0.6-15.1,0.7v45.5c1.7,0.2,11.5,0.7,15.1,0.7
			c8.5,0,14.9-1.9,18.9-5.7c4-3.8,6.1-9.8,6.1-17.8S196.4,57.8,192.4,54.1z M187.7,85.6c-2.8,2.8-7.4,4.3-13.6,4.3
			c-2.1,0-7.9-0.3-9.2-0.4V54.3c1.3-0.1,7.1-0.4,9.2-0.4c6.2,0,10.8,1.4,13.6,4.3c2.8,2.8,4.2,7.4,4.2,13.7S190.5,82.8,187.7,85.6z"></path>
	</g>
</g>
</svg>