<svg xmlns="http://www.w3.org/2000/svg" version="1.1" xmlns:xlink="http://www.w3.org/1999/xlink" xmlns:svgjs="http://svgjs.dev/svgjs" width="2000" height="2250" viewBox="0 0 2000 2250"><g transform="matrix(1,0,0,1,3.410605131648481e-13,0)"><svg viewBox="0 0 320 360" data-background-color="#ffffff" preserveAspectRatio="xMidYMid meet" height="2250" width="2000" xmlns="http://www.w3.org/2000/svg" xmlns:xlink="http://www.w3.org/1999/xlink"><g id="tight-bounds" transform="matrix(1,0,0,1,0,0)"><svg viewBox="0 0 320 360" height="360" width="320"><g><svg></svg></g><g><svg viewBox="0 0 320 360" height="360" width="320"><g><path d="M20.961 227.22l3.726 4.658-1.863-6.056c-0.466-2.795-3.726 0.466-1.863 1.398M25.153 224.425c1.397 2.329 2.795 4.658 2.795 6.987 0 3.261 2.795 4.658 5.123 5.589-3.261-3.726-5.124-13.974-7.918-12.576M204.017 26.929c7.918 0 15.371-0.932 23.756 0.931 20.495 5.124 37.729 15.371 49.374 29.811l32.606 52.169c1.397 13.042 4.192 27.482 3.726 43.319 3.261 0 2.795-4.658 6.521-5.59-3.726 9.316-5.59 20.961-6.521 34.469-2.329-7.453 0-18.632 0.466-24.687-3.261 5.124-5.124 1.397-5.124-0.932 0.466-3.726-1.397-3.261-2.795-4.658-5.124-4.658-8.384-9.782-12.11-17.7 2.329-6.055 2.795-14.905-4.658-19.563-2.329-1.397-5.124-3.726-6.521-7.453-1.863-5.124-5.124-11.179-4.193-19.097 0.466-2.329-6.987 5.124-11.179 1.863-18.166-12.576-36.332-27.016-58.224-39.127-11.645 0-20.029-4.192-24.221-9.316-3.726-4.658-0.932-10.713 4.658-11.179 3.261 0 6.987-0.932 9.782 0.932 0.466-1.863 2.329-4.192 4.657-4.192M157.904 16.215l0.932 0.466c4.658 0.932 6.987 7.453 12.11 5.124 0 3.261 0.466 6.521-0.466 8.85-1.397 3.726-5.59 3.726-8.85 3.726-31.208-1.863-49.374 11.179-68.471 22.358-5.124 3.261-10.713 5.59-14.906 9.782-20.029 18.632-41.921 35.866-47.045 70.335l-4.192 38.195c-0.466 4.192-5.124 8.384-4.192 13.508l3.26 22.824c-3.261-3.261-5.124 0.932-4.192 2.795 0.466 1.397 2.329 6.055 5.124 1.863 3.726 6.987 7.453 20.495 12.576 26.55 15.837 18.632 36.332 35.4 53.101 52.169 4.192-0.932 7.453-0.932 8.384-3.727 1.397 2.795-1.397 5.59-3.726 6.056 7.453 4.658 15.837 8.85 27.016 9.781 14.44 0.932 27.948 3.261 40.524 6.522 6.521-1.863 13.042-2.795 20.029-3.261 2.329 0 3.726-3.726 6.521-4.658l0.466-4.658c2.795 4.192 2.329-1.397 0.466-4.192 3.261 2.795 4.192 5.124 5.589 6.987 0-1.397 3.726-6.521 3.727-0.466l0.931-6.055c1.397-0.932 1.863 5.124 3.261 0.931 1.397-4.192 4.192-0.932 6.987-2.329-0.932 1.863-0.466 5.59 2.794 3.261l3.727-3.261c2.329 5.59 6.055 3.261 7.918 2.329 20.495-13.042 40.99-28.413 60.553-43.784l-0.466 6.055 2.329-7.453c2.329 2.329 4.192 0.466 5.124-0.931 2.795-4.658 6.521-9.316 12.577-13.508-7.453 20.029-16.303 35.866-27.482 48.908l-4.658 5.59c0 3.261-0.932 7.453-4.658 7.918-1.863 0.466-5.59-0.932-8.384 1.863-1.397 1.863 3.261 5.59-0.466 2.795-3.261-2.329-6.521 0-10.248 0.932-2.795 0.932 1.863 3.726 2.795 5.589 0.932 1.863 1.863 3.726 1.398 6.056l-5.124-5.59c-6.055 3.261-9.782 9.316-14.906 13.974-2.329 1.863-1.397 5.124-1.397 7.918-3.261 0-6.987-0.932-8.85 0.932-1.397 1.863-0.932 4.658-0.932 7.453-4.658-0.466-5.124-7.453-9.315-6.056-4.192 0.932-8.85 1.397-12.577 3.727 2.795 5.59-4.658 2.329-3.726 3.26-6.987-4.192-13.042-7.453-20.495-4.658-15.837-5.124-35.4-2.795-49.84-0.931 0-2.329 0.466-4.658-0.466-5.124-0.932 2.329-3.726 1.397-3.26 1.397-8.85-6.055-17.7-9.782-27.016-14.905-8.384 0.932-16.303-3.261-18.632-5.59-6.521-6.055-13.974-2.795-20.029-4.192-13.042-3.261-17.7-16.769-19.098-26.084-0.932-4.658-4.658-6.521-6.055-6.056-6.055-19.563-15.371-37.263-22.824-55.429-1.863-4.658-1.397-9.316-1.397-14.44 2.329 0.932 4.658 0.466 4.192-2.794-2.329-15.371-7.918-27.016-13.974-38.195 3.261-15.837 3.726-34.469 11.179-48.443 6.521-12.576 18.632-19.098 27.016-29.811 2.795-3.726 2.795-8.85 5.59-12.11 9.316-9.316 18.632-19.098 28.879-27.482 4.658-3.726 10.247 0 17.234-1.397 2.329-8.384 11.645-15.837 20.495-13.508 3.726 0.932 11.179-8.85 13.508-9.782 3.726-1.397 1.863 3.726 1.863 6.987 8.85-6.987 20.961-10.713 32.14-14.906" fill="#ffccea" fill-rule="nonzero" stroke="none" stroke-width="1" stroke-linecap="butt" stroke-linejoin="miter" stroke-miterlimit="10" stroke-dasharray="" stroke-dashoffset="0" font-family="none" font-weight="none" font-size="none" text-anchor="none" style="mix-blend-mode: normal" data-fill-palette-color="tertiary"></path></g><g transform="matrix(1,0,0,1,64,108.73094524222819)"><svg viewBox="0 0 192 142.53810951554362" height="142.53810951554362" width="192"><g><svg viewBox="0 0 192 142.53810951554362" height="142.53810951554362" width="192"><g><svg viewBox="0 0 192 142.53810951554362" height="142.53810951554362" width="192"><g><svg viewBox="0 0 192 142.53810951554362" height="142.53810951554362" width="192"><g id="textblocktransform"><svg viewBox="0 0 192 142.53810951554362" height="142.53810951554362" width="192" id="textblock"><g><svg viewBox="0 0 192 142.53810951554362" height="142.53810951554362" width="192"><g transform="matrix(1,0,0,1,0,0)"><svg width="192" viewBox="-1.68 -41.13 62.88 46.940000000000005" height="142.53810951554362" data-palette-color="#a62a6c"><path d="M6.57-10.11L8.2-32.15Q8.23-32.59 8.25-32.89 8.28-33.18 8.34-33.37 8.4-33.57 8.52-33.67 8.64-33.76 8.91-33.81L8.91-33.81 17.36-35.84Q17.68-35.94 17.99-35.94L17.99-35.94Q18.33-35.94 18.47-35.72 18.6-35.5 18.6-34.89L18.6-34.89 17.87-27.05 17.43-22.36Q17.29-20.73 17.14-19.19 16.99-17.65 16.86-16.35 16.72-15.04 16.63-14.03 16.53-13.01 16.48-12.4L16.48-12.4 16.43-11.69Q16.24-8.91 15.37-6.37 14.5-3.83 13.07-1.89 11.65 0.05 9.68 1.2 7.71 2.34 5.32 2.34L5.32 2.34Q4.1 2.34 3.5 2.29 2.91 2.25 2.65 2.14 2.39 2.03 2.33 1.84 2.27 1.66 2.12 1.39L2.12 1.39 1.32-4.54Q1.32-4.59 1.48-4.75 1.64-4.91 1.73-4.96L1.73-4.96Q2.61-5.3 3.47-5.74 4.32-6.18 4.99-6.77 5.66-7.37 6.09-8.19 6.52-9.01 6.57-10.11L6.57-10.11ZM37.64 1.27L37.06 1.27Q33.4 1.27 30.52-0.1 27.63-1.46 25.64-3.8 23.65-6.13 22.59-9.19 21.53-12.26 21.53-15.67L21.53-15.67Q21.53-19.51 22.62-22.74 23.7-25.98 25.66-28.48 27.61-30.98 30.31-32.7 33.01-34.42 36.23-35.25L36.23-35.25Q36.52-35.25 36.66-35.63 36.79-36.01 36.9-36.51 37.01-37.01 37.12-37.48 37.23-37.94 37.47-38.13L37.47-38.13Q46.07-36.96 48.97-35.47L48.97-35.47Q50.51-34.69 51.65-33.94 52.78-33.18 53.68-32.28 54.59-31.37 55.32-30.2 56.05-29.03 56.78-27.39L56.78-27.39Q57.54-25.68 57.91-23.14L57.91-23.14 57.93-22.85Q58.05-21.92 58.13-20.87 58.2-19.82 58.2-18.65L58.2-18.65Q58.2-14.43 56.82-11.02 55.44-7.62 53-5.03L53-5.03Q53.66-4.32 54.22-3.69 54.78-3.05 55.2-2.54 55.61-2.03 55.86-1.65 56.1-1.27 56.1-1.1L56.1-1.1Q56.1-0.83 55.67-0.45 55.25-0.07 54.6 0.37 53.95 0.81 53.2 1.25 52.44 1.68 51.78 2.03 51.12 2.37 50.66 2.59 50.19 2.81 50.14 2.81L50.14 2.81Q49.95 2.81 49.79 2.7 49.63 2.59 49.51 2.47L49.51 2.47 46.51-0.54Q44.43 0.32 42.26 0.79 40.09 1.27 37.64 1.27L37.64 1.27ZM32.42-16.65L32.42-16.65Q32.42-14.97 32.74-13.29 33.05-11.62 33.81-10.16L33.81-10.16Q33.84-10.13 33.84-10.11L33.84-10.11Q34.71-8.62 36.17-7.69 37.62-6.76 39.82-6.76L39.82-6.76 40.31-6.81 40.01-7.15Q39.45-7.79 39.08-8.28 38.72-8.76 38.72-9.01L38.72-9.01Q38.72-9.47 39.4-9.84L39.4-9.84 45.09-12.7Q45.24-12.77 45.33-12.77L45.33-12.77Q45.53-12.77 45.8-12.43 46.07-12.08 46.56-11.57L46.56-11.57Q47.24-13.18 47.53-15.12 47.82-17.07 47.82-18.82L47.82-18.82Q47.82-21.46 46.88-23.52 45.94-25.59 43.63-26.98L43.63-26.98Q42.84-27.44 41.95-27.64 41.06-27.83 39.99-27.83L39.99-27.83Q38.91-27.83 38.03-27.45 37.16-27.08 36.44-26.49 35.72-25.9 35.13-25.21 34.54-24.51 34.1-23.9L34.1-23.9Q33.64-23.27 33.32-22.34 33.01-21.41 32.8-20.41 32.59-19.41 32.5-18.41 32.42-17.41 32.42-16.65Z" opacity="1" transform="matrix(1,0,0,1,0,0)" fill="#a62a6c" class="wordmark-text-0" data-fill-palette-color="primary" id="text-0"></path></svg></g></svg></g></svg></g></svg></g><g></g></svg></g></svg></g></svg></g></svg></g><defs></defs></svg><rect width="320" height="360" fill="none" stroke="none" visibility="hidden"></rect></g></svg></g></svg>